P2
# Created by GIMP version 2.10.38 PNM plug-in
18 18
255
255
255
255
255
255
255
255
255
255
255
255
255
255
255
255
255
255
255
255
255
255
255
255
255
255
255
255
255
255
255
255
255
255
255
255
255
255
255
255
255
255
255
255
255
255
0
255
255
255
255
255
255
255
255
255
255
255
255
255
255
255
255
255
0
255
255
255
255
255
255
255
255
255
255
255
255
255
255
255
255
255
0
255
255
255
255
255
255
255
255
255
255
255
255
255
255
253
255
255
0
255
255
255
255
255
255
255
255
255
255
255
255
255
254
255
255
255
0
255
255
255
255
255
255
255
255
255
255
255
255
255
254
255
255
255
0
253
255
255
255
255
255
255
255
255
255
255
255
255
252
255
255
255
0
255
255
255
255
255
255
255
255
255
255
255
255
255
254
255
255
255
0
255
255
255
255
255
255
255
255
255
255
255
255
255
255
0
0
0
0
255
255
255
255
255
255
255
255
255
255
255
255
255
255
0
255
255
0
254
255
255
255
255
255
255
255
255
255
255
255
255
255
0
255
255
0
255
255
255
255
255
255
255
255
255
255
255
255
255
254
255
0
0
0
255
255
255
255
255
255
255
255
255
255
255
255
255
253
255
255
255
255
255
255
255
255
255
255
255
255
255
255
255
255
255
255
255
255
255
255
255
255
255
255
255
255
255
255
255
255
255
255
255
255
255
255
255
255
255
255
255
255
255
255
255
255
255
255
255
255
255
255
255
255
255
255
255
255
255
255
255
255
255
255
