P2
# Created by GIMP version 2.10.38 PNM plug-in
18 18
255
255
255
255
255
255
255
255
255
255
255
255
255
255
255
255
255
255
255
255
255
255
255
255
255
255
255
255
255
255
255
255
255
255
255
255
255
255
255
255
255
255
255
255
255
255
255
255
255
255
255
255
255
255
255
255
255
255
255
255
255
255
255
255
255
255
255
255
255
255
255
255
255
255
255
255
255
0
255
255
255
255
255
255
255
255
255
255
255
255
255
255
255
255
255
0
255
255
255
255
255
255
255
255
255
255
255
255
255
255
255
255
255
0
255
255
255
255
255
255
255
255
255
255
255
255
255
255
255
255
255
0
255
255
255
255
255
255
255
255
255
255
255
255
255
255
255
255
255
0
255
255
253
249
255
255
255
255
255
255
255
255
255
255
255
255
255
0
255
0
0
0
0
255
254
255
255
255
255
255
255
255
255
255
255
0
0
255
255
255
0
0
253
255
255
255
255
255
255
255
255
255
255
0
255
255
255
255
251
0
251
255
255
255
255
255
255
255
255
255
255
0
255
255
255
255
254
0
255
255
255
255
255
255
255
255
255
255
255
0
255
255
255
255
250
0
255
255
255
255
255
255
255
255
255
255
255
255
255
255
255
255
255
255
255
255
255
255
255
255
255
255
255
255
255
255
255
255
255
255
255
255
255
255
255
255
255
255
255
255
255
255
255
255
255
255
255
255
255
255
255
255
255
255
255
255
255
255
255
255
255
255
255
255
255
255
255
255
255
255
255
255
255
255
255
